# vtk DataFile Version 3.0
Element-wise (cell data) test cube
ASCII
DATASET UNSTRUCTURED_GRID
POINTS 729 float
0 0 0
1 0 0
2 0 0
3 0 0
4 0 0
5 0 0
6 0 0
7 0 0
8 0 0
0 1 0
1 1 0
2 1 0
3 1 0
4 1 0
5 1 0
6 1 0
7 1 0
8 1 0
0 2 0
1 2 0
2 2 0
3 2 0
4 2 0
5 2 0
6 2 0
7 2 0
8 2 0
0 3 0
1 3 0
2 3 0
3 3 0
4 3 0
5 3 0
6 3 0
7 3 0
8 3 0
0 4 0
1 4 0
2 4 0
3 4 0
4 4 0
5 4 0
6 4 0
7 4 0
8 4 0
0 5 0
1 5 0
2 5 0
3 5 0
4 5 0
5 5 0
6 5 0
7 5 0
8 5 0
0 6 0
1 6 0
2 6 0
3 6 0
4 6 0
5 6 0
6 6 0
7 6 0
8 6 0
0 7 0
1 7 0
2 7 0
3 7 0
4 7 0
5 7 0
6 7 0
7 7 0
8 7 0
0 8 0
1 8 0
2 8 0
3 8 0
4 8 0
5 8 0
6 8 0
7 8 0
8 8 0
0 0 1
1 0 1
2 0 1
3 0 1
4 0 1
5 0 1
6 0 1
7 0 1
8 0 1
0 1 1
1 1 1
2 1 1
3 1 1
4 1 1
5 1 1
6 1 1
7 1 1
8 1 1
0 2 1
1 2 1
2 2 1
3 2 1
4 2 1
5 2 1
6 2 1
7 2 1
8 2 1
0 3 1
1 3 1
2 3 1
3 3 1
4 3 1
5 3 1
6 3 1
7 3 1
8 3 1
0 4 1
1 4 1
2 4 1
3 4 1
4 4 1
5 4 1
6 4 1
7 4 1
8 4 1
0 5 1
1 5 1
2 5 1
3 5 1
4 5 1
5 5 1
6 5 1
7 5 1
8 5 1
0 6 1
1 6 1
2 6 1
3 6 1
4 6 1
5 6 1
6 6 1
7 6 1
8 6 1
0 7 1
1 7 1
2 7 1
3 7 1
4 7 1
5 7 1
6 7 1
7 7 1
8 7 1
0 8 1
1 8 1
2 8 1
3 8 1
4 8 1
5 8 1
6 8 1
7 8 1
8 8 1
0 0 2
1 0 2
2 0 2
3 0 2
4 0 2
5 0 2
6 0 2
7 0 2
8 0 2
0 1 2
1 1 2
2 1 2
3 1 2
4 1 2
5 1 2
6 1 2
7 1 2
8 1 2
0 2 2
1 2 2
2 2 2
3 2 2
4 2 2
5 2 2
6 2 2
7 2 2
8 2 2
0 3 2
1 3 2
2 3 2
3 3 2
4 3 2
5 3 2
6 3 2
7 3 2
8 3 2
0 4 2
1 4 2
2 4 2
3 4 2
4 4 2
5 4 2
6 4 2
7 4 2
8 4 2
0 5 2
1 5 2
2 5 2
3 5 2
4 5 2
5 5 2
6 5 2
7 5 2
8 5 2
0 6 2
1 6 2
2 6 2
3 6 2
4 6 2
5 6 2
6 6 2
7 6 2
8 6 2
0 7 2
1 7 2
2 7 2
3 7 2
4 7 2
5 7 2
6 7 2
7 7 2
8 7 2
0 8 2
1 8 2
2 8 2
3 8 2
4 8 2
5 8 2
6 8 2
7 8 2
8 8 2
0 0 3
1 0 3
2 0 3
3 0 3
4 0 3
5 0 3
6 0 3
7 0 3
8 0 3
0 1 3
1 1 3
2 1 3
3 1 3
4 1 3
5 1 3
6 1 3
7 1 3
8 1 3
0 2 3
1 2 3
2 2 3
3 2 3
4 2 3
5 2 3
6 2 3
7 2 3
8 2 3
0 3 3
1 3 3
2 3 3
3 3 3
4 3 3
5 3 3
6 3 3
7 3 3
8 3 3
0 4 3
1 4 3
2 4 3
3 4 3
4 4 3
5 4 3
6 4 3
7 4 3
8 4 3
0 5 3
1 5 3
2 5 3
3 5 3
4 5 3
5 5 3
6 5 3
7 5 3
8 5 3
0 6 3
1 6 3
2 6 3
3 6 3
4 6 3
5 6 3
6 6 3
7 6 3
8 6 3
0 7 3
1 7 3
2 7 3
3 7 3
4 7 3
5 7 3
6 7 3
7 7 3
8 7 3
0 8 3
1 8 3
2 8 3
3 8 3
4 8 3
5 8 3
6 8 3
7 8 3
8 8 3
0 0 4
1 0 4
2 0 4
3 0 4
4 0 4
5 0 4
6 0 4
7 0 4
8 0 4
0 1 4
1 1 4
2 1 4
3 1 4
4 1 4
5 1 4
6 1 4
7 1 4
8 1 4
0 2 4
1 2 4
2 2 4
3 2 4
4 2 4
5 2 4
6 2 4
7 2 4
8 2 4
0 3 4
1 3 4
2 3 4
3 3 4
4 3 4
5 3 4
6 3 4
7 3 4
8 3 4
0 4 4
1 4 4
2 4 4
3 4 4
4 4 4
5 4 4
6 4 4
7 4 4
8 4 4
0 5 4
1 5 4
2 5 4
3 5 4
4 5 4
5 5 4
6 5 4
7 5 4
8 5 4
0 6 4
1 6 4
2 6 4
3 6 4
4 6 4
5 6 4
6 6 4
7 6 4
8 6 4
0 7 4
1 7 4
2 7 4
3 7 4
4 7 4
5 7 4
6 7 4
7 7 4
8 7 4
0 8 4
1 8 4
2 8 4
3 8 4
4 8 4
5 8 4
6 8 4
7 8 4
8 8 4
0 0 5
1 0 5
2 0 5
3 0 5
4 0 5
5 0 5
6 0 5
7 0 5
8 0 5
0 1 5
1 1 5
2 1 5
3 1 5
4 1 5
5 1 5
6 1 5
7 1 5
8 1 5
0 2 5
1 2 5
2 2 5
3 2 5
4 2 5
5 2 5
6 2 5
7 2 5
8 2 5
0 3 5
1 3 5
2 3 5
3 3 5
4 3 5
5 3 5
6 3 5
7 3 5
8 3 5
0 4 5
1 4 5
2 4 5
3 4 5
4 4 5
5 4 5
6 4 5
7 4 5
8 4 5
0 5 5
1 5 5
2 5 5
3 5 5
4 5 5
5 5 5
6 5 5
7 5 5
8 5 5
0 6 5
1 6 5
2 6 5
3 6 5
4 6 5
5 6 5
6 6 5
7 6 5
8 6 5
0 7 5
1 7 5
2 7 5
3 7 5
4 7 5
5 7 5
6 7 5
7 7 5
8 7 5
0 8 5
1 8 5
2 8 5
3 8 5
4 8 5
5 8 5
6 8 5
7 8 5
8 8 5
0 0 6
1 0 6
2 0 6
3 0 6
4 0 6
5 0 6
6 0 6
7 0 6
8 0 6
0 1 6
1 1 6
2 1 6
3 1 6
4 1 6
5 1 6
6 1 6
7 1 6
8 1 6
0 2 6
1 2 6
2 2 6
3 2 6
4 2 6
5 2 6
6 2 6
7 2 6
8 2 6
0 3 6
1 3 6
2 3 6
3 3 6
4 3 6
5 3 6
6 3 6
7 3 6
8 3 6
0 4 6
1 4 6
2 4 6
3 4 6
4 4 6
5 4 6
6 4 6
7 4 6
8 4 6
0 5 6
1 5 6
2 5 6
3 5 6
4 5 6
5 5 6
6 5 6
7 5 6
8 5 6
0 6 6
1 6 6
2 6 6
3 6 6
4 6 6
5 6 6
6 6 6
7 6 6
8 6 6
0 7 6
1 7 6
2 7 6
3 7 6
4 7 6
5 7 6
6 7 6
7 7 6
8 7 6
0 8 6
1 8 6
2 8 6
3 8 6
4 8 6
5 8 6
6 8 6
7 8 6
8 8 6
0 0 7
1 0 7
2 0 7
3 0 7
4 0 7
5 0 7
6 0 7
7 0 7
8 0 7
0 1 7
1 1 7
2 1 7
3 1 7
4 1 7
5 1 7
6 1 7
7 1 7
8 1 7
0 2 7
1 2 7
2 2 7
3 2 7
4 2 7
5 2 7
6 2 7
7 2 7
8 2 7
0 3 7
1 3 7
2 3 7
3 3 7
4 3 7
5 3 7
6 3 7
7 3 7
8 3 7
0 4 7
1 4 7
2 4 7
3 4 7
4 4 7
5 4 7
6 4 7
7 4 7
8 4 7
0 5 7
1 5 7
2 5 7
3 5 7
4 5 7
5 5 7
6 5 7
7 5 7
8 5 7
0 6 7
1 6 7
2 6 7
3 6 7
4 6 7
5 6 7
6 6 7
7 6 7
8 6 7
0 7 7
1 7 7
2 7 7
3 7 7
4 7 7
5 7 7
6 7 7
7 7 7
8 7 7
0 8 7
1 8 7
2 8 7
3 8 7
4 8 7
5 8 7
6 8 7
7 8 7
8 8 7
0 0 8
1 0 8
2 0 8
3 0 8
4 0 8
5 0 8
6 0 8
7 0 8
8 0 8
0 1 8
1 1 8
2 1 8
3 1 8
4 1 8
5 1 8
6 1 8
7 1 8
8 1 8
0 2 8
1 2 8
2 2 8
3 2 8
4 2 8
5 2 8
6 2 8
7 2 8
8 2 8
0 3 8
1 3 8
2 3 8
3 3 8
4 3 8
5 3 8
6 3 8
7 3 8
8 3 8
0 4 8
1 4 8
2 4 8
3 4 8
4 4 8
5 4 8
6 4 8
7 4 8
8 4 8
0 5 8
1 5 8
2 5 8
3 5 8
4 5 8
5 5 8
6 5 8
7 5 8
8 5 8
0 6 8
1 6 8
2 6 8
3 6 8
4 6 8
5 6 8
6 6 8
7 6 8
8 6 8
0 7 8
1 7 8
2 7 8
3 7 8
4 7 8
5 7 8
6 7 8
7 7 8
8 7 8
0 8 8
1 8 8
2 8 8
3 8 8
4 8 8
5 8 8
6 8 8
7 8 8
8 8 8
CELLS 512 4608
8 0 1 10 9 81 82 91 90
8 1 2 11 10 82 83 92 91
8 2 3 12 11 83 84 93 92
8 3 4 13 12 84 85 94 93
8 4 5 14 13 85 86 95 94
8 5 6 15 14 86 87 96 95
8 6 7 16 15 87 88 97 96
8 7 8 17 16 88 89 98 97
8 9 10 19 18 90 91 100 99
8 10 11 20 19 91 92 101 100
8 11 12 21 20 92 93 102 101
8 12 13 22 21 93 94 103 102
8 13 14 23 22 94 95 104 103
8 14 15 24 23 95 96 105 104
8 15 16 25 24 96 97 106 105
8 16 17 26 25 97 98 107 106
8 18 19 28 27 99 100 109 108
8 19 20 29 28 100 101 110 109
8 20 21 30 29 101 102 111 110
8 21 22 31 30 102 103 112 111
8 22 23 32 31 103 104 113 112
8 23 24 33 32 104 105 114 113
8 24 25 34 33 105 106 115 114
8 25 26 35 34 106 107 116 115
8 27 28 37 36 108 109 118 117
8 28 29 38 37 109 110 119 118
8 29 30 39 38 110 111 120 119
8 30 31 40 39 111 112 121 120
8 31 32 41 40 112 113 122 121
8 32 33 42 41 113 114 123 122
8 33 34 43 42 114 115 124 123
8 34 35 44 43 115 116 125 124
8 36 37 46 45 117 118 127 126
8 37 38 47 46 118 119 128 127
8 38 39 48 47 119 120 129 128
8 39 40 49 48 120 121 130 129
8 40 41 50 49 121 122 131 130
8 41 42 51 50 122 123 132 131
8 42 43 52 51 123 124 133 132
8 43 44 53 52 124 125 134 133
8 45 46 55 54 126 127 136 135
8 46 47 56 55 127 128 137 136
8 47 48 57 56 128 129 138 137
8 48 49 58 57 129 130 139 138
8 49 50 59 58 130 131 140 139
8 50 51 60 59 131 132 141 140
8 51 52 61 60 132 133 142 141
8 52 53 62 61 133 134 143 142
8 54 55 64 63 135 136 145 144
8 55 56 65 64 136 137 146 145
8 56 57 66 65 137 138 147 146
8 57 58 67 66 138 139 148 147
8 58 59 68 67 139 140 149 148
8 59 60 69 68 140 141 150 149
8 60 61 70 69 141 142 151 150
8 61 62 71 70 142 143 152 151
8 63 64 73 72 144 145 154 153
8 64 65 74 73 145 146 155 154
8 65 66 75 74 146 147 156 155
8 66 67 76 75 147 148 157 156
8 67 68 77 76 148 149 158 157
8 68 69 78 77 149 150 159 158
8 69 70 79 78 150 151 160 159
8 70 71 80 79 151 152 161 160
8 81 82 91 90 162 163 172 171
8 82 83 92 91 163 164 173 172
8 83 84 93 92 164 165 174 173
8 84 85 94 93 165 166 175 174
8 85 86 95 94 166 167 176 175
8 86 87 96 95 167 168 177 176
8 87 88 97 96 168 169 178 177
8 88 89 98 97 169 170 179 178
8 90 91 100 99 171 172 181 180
8 91 92 101 100 172 173 182 181
8 92 93 102 101 173 174 183 182
8 93 94 103 102 174 175 184 183
8 94 95 104 103 175 176 185 184
8 95 96 105 104 176 177 186 185
8 96 97 106 105 177 178 187 186
8 97 98 107 106 178 179 188 187
8 99 100 109 108 180 181 190 189
8 100 101 110 109 181 182 191 190
8 101 102 111 110 182 183 192 191
8 102 103 112 111 183 184 193 192
8 103 104 113 112 184 185 194 193
8 104 105 114 113 185 186 195 194
8 105 106 115 114 186 187 196 195
8 106 107 116 115 187 188 197 196
8 108 109 118 117 189 190 199 198
8 109 110 119 118 190 191 200 199
8 110 111 120 119 191 192 201 200
8 111 112 121 120 192 193 202 201
8 112 113 122 121 193 194 203 202
8 113 114 123 122 194 195 204 203
8 114 115 124 123 195 196 205 204
8 115 116 125 124 196 197 206 205
8 117 118 127 126 198 199 208 207
8 118 119 128 127 199 200 209 208
8 119 120 129 128 200 201 210 209
8 120 121 130 129 201 202 211 210
8 121 122 131 130 202 203 212 211
8 122 123 132 131 203 204 213 212
8 123 124 133 132 204 205 214 213
8 124 125 134 133 205 206 215 214
8 126 127 136 135 207 208 217 216
8 127 128 137 136 208 209 218 217
8 128 129 138 137 209 210 219 218
8 129 130 139 138 210 211 220 219
8 130 131 140 139 211 212 221 220
8 131 132 141 140 212 213 222 221
8 132 133 142 141 213 214 223 222
8 133 134 143 142 214 215 224 223
8 135 136 145 144 216 217 226 225
8 136 137 146 145 217 218 227 226
8 137 138 147 146 218 219 228 227
8 138 139 148 147 219 220 229 228
8 139 140 149 148 220 221 230 229
8 140 141 150 149 221 222 231 230
8 141 142 151 150 222 223 232 231
8 142 143 152 151 223 224 233 232
8 144 145 154 153 225 226 235 234
8 145 146 155 154 226 227 236 235
8 146 147 156 155 227 228 237 236
8 147 148 157 156 228 229 238 237
8 148 149 158 157 229 230 239 238
8 149 150 159 158 230 231 240 239
8 150 151 160 159 231 232 241 240
8 151 152 161 160 232 233 242 241
8 162 163 172 171 243 244 253 252
8 163 164 173 172 244 245 254 253
8 164 165 174 173 245 246 255 254
8 165 166 175 174 246 247 256 255
8 166 167 176 175 247 248 257 256
8 167 168 177 176 248 249 258 257
8 168 169 178 177 249 250 259 258
8 169 170 179 178 250 251 260 259
8 171 172 181 180 252 253 262 261
8 172 173 182 181 253 254 263 262
8 173 174 183 182 254 255 264 263
8 174 175 184 183 255 256 265 264
8 175 176 185 184 256 257 266 265
8 176 177 186 185 257 258 267 266
8 177 178 187 186 258 259 268 267
8 178 179 188 187 259 260 269 268
8 180 181 190 189 261 262 271 270
8 181 182 191 190 262 263 272 271
8 182 183 192 191 263 264 273 272
8 183 184 193 192 264 265 274 273
8 184 185 194 193 265 266 275 274
8 185 186 195 194 266 267 276 275
8 186 187 196 195 267 268 277 276
8 187 188 197 196 268 269 278 277
8 189 190 199 198 270 271 280 279
8 190 191 200 199 271 272 281 280
8 191 192 201 200 272 273 282 281
8 192 193 202 201 273 274 283 282
8 193 194 203 202 274 275 284 283
8 194 195 204 203 275 276 285 284
8 195 196 205 204 276 277 286 285
8 196 197 206 205 277 278 287 286
8 198 199 208 207 279 280 289 288
8 199 200 209 208 280 281 290 289
8 200 201 210 209 281 282 291 290
8 201 202 211 210 282 283 292 291
8 202 203 212 211 283 284 293 292
8 203 204 213 212 284 285 294 293
8 204 205 214 213 285 286 295 294
8 205 206 215 214 286 287 296 295
8 207 208 217 216 288 289 298 297
8 208 209 218 217 289 290 299 298
8 209 210 219 218 290 291 300 299
8 210 211 220 219 291 292 301 300
8 211 212 221 220 292 293 302 301
8 212 213 222 221 293 294 303 302
8 213 214 223 222 294 295 304 303
8 214 215 224 223 295 296 305 304
8 216 217 226 225 297 298 307 306
8 217 218 227 226 298 299 308 307
8 218 219 228 227 299 300 309 308
8 219 220 229 228 300 301 310 309
8 220 221 230 229 301 302 311 310
8 221 222 231 230 302 303 312 311
8 222 223 232 231 303 304 313 312
8 223 224 233 232 304 305 314 313
8 225 226 235 234 306 307 316 315
8 226 227 236 235 307 308 317 316
8 227 228 237 236 308 309 318 317
8 228 229 238 237 309 310 319 318
8 229 230 239 238 310 311 320 319
8 230 231 240 239 311 312 321 320
8 231 232 241 240 312 313 322 321
8 232 233 242 241 313 314 323 322
8 243 244 253 252 324 325 334 333
8 244 245 254 253 325 326 335 334
8 245 246 255 254 326 327 336 335
8 246 247 256 255 327 328 337 336
8 247 248 257 256 328 329 338 337
8 248 249 258 257 329 330 339 338
8 249 250 259 258 330 331 340 339
8 250 251 260 259 331 332 341 340
8 252 253 262 261 333 334 343 342
8 253 254 263 262 334 335 344 343
8 254 255 264 263 335 336 345 344
8 255 256 265 264 336 337 346 345
8 256 257 266 265 337 338 347 346
8 257 258 267 266 338 339 348 347
8 258 259 268 267 339 340 349 348
8 259 260 269 268 340 341 350 349
8 261 262 271 270 342 343 352 351
8 262 263 272 271 343 344 353 352
8 263 264 273 272 344 345 354 353
8 264 265 274 273 345 346 355 354
8 265 266 275 274 346 347 356 355
8 266 267 276 275 347 348 357 356
8 267 268 277 276 348 349 358 357
8 268 269 278 277 349 350 359 358
8 270 271 280 279 351 352 361 360
8 271 272 281 280 352 353 362 361
8 272 273 282 281 353 354 363 362
8 273 274 283 282 354 355 364 363
8 274 275 284 283 355 356 365 364
8 275 276 285 284 356 357 366 365
8 276 277 286 285 357 358 367 366
8 277 278 287 286 358 359 368 367
8 279 280 289 288 360 361 370 369
8 280 281 290 289 361 362 371 370
8 281 282 291 290 362 363 372 371
8 282 283 292 291 363 364 373 372
8 283 284 293 292 364 365 374 373
8 284 285 294 293 365 366 375 374
8 285 286 295 294 366 367 376 375
8 286 287 296 295 367 368 377 376
8 288 289 298 297 369 370 379 378
8 289 290 299 298 370 371 380 379
8 290 291 300 299 371 372 381 380
8 291 292 301 300 372 373 382 381
8 292 293 302 301 373 374 383 382
8 293 294 303 302 374 375 384 383
8 294 295 304 303 375 376 385 384
8 295 296 305 304 376 377 386 385
8 297 298 307 306 378 379 388 387
8 298 299 308 307 379 380 389 388
8 299 300 309 308 380 381 390 389
8 300 301 310 309 381 382 391 390
8 301 302 311 310 382 383 392 391
8 302 303 312 311 383 384 393 392
8 303 304 313 312 384 385 394 393
8 304 305 314 313 385 386 395 394
8 306 307 316 315 387 388 397 396
8 307 308 317 316 388 389 398 397
8 308 309 318 317 389 390 399 398
8 309 310 319 318 390 391 400 399
8 310 311 320 319 391 392 401 400
8 311 312 321 320 392 393 402 401
8 312 313 322 321 393 394 403 402
8 313 314 323 322 394 395 404 403
8 324 325 334 333 405 406 415 414
8 325 326 335 334 406 407 416 415
8 326 327 336 335 407 408 417 416
8 327 328 337 336 408 409 418 417
8 328 329 338 337 409 410 419 418
8 329 330 339 338 410 411 420 419
8 330 331 340 339 411 412 421 420
8 331 332 341 340 412 413 422 421
8 333 334 343 342 414 415 424 423
8 334 335 344 343 415 416 425 424
8 335 336 345 344 416 417 426 425
8 336 337 346 345 417 418 427 426
8 337 338 347 346 418 419 428 427
8 338 339 348 347 419 420 429 428
8 339 340 349 348 420 421 430 429
8 340 341 350 349 421 422 431 430
8 342 343 352 351 423 424 433 432
8 343 344 353 352 424 425 434 433
8 344 345 354 353 425 426 435 434
8 345 346 355 354 426 427 436 435
8 346 347 356 355 427 428 437 436
8 347 348 357 356 428 429 438 437
8 348 349 358 357 429 430 439 438
8 349 350 359 358 430 431 440 439
8 351 352 361 360 432 433 442 441
8 352 353 362 361 433 434 443 442
8 353 354 363 362 434 435 444 443
8 354 355 364 363 435 436 445 444
8 355 356 365 364 436 437 446 445
8 356 357 366 365 437 438 447 446
8 357 358 367 366 438 439 448 447
8 358 359 368 367 439 440 449 448
8 360 361 370 369 441 442 451 450
8 361 362 371 370 442 443 452 451
8 362 363 372 371 443 444 453 452
8 363 364 373 372 444 445 454 453
8 364 365 374 373 445 446 455 454
8 365 366 375 374 446 447 456 455
8 366 367 376 375 447 448 457 456
8 367 368 377 376 448 449 458 457
8 369 370 379 378 450 451 460 459
8 370 371 380 379 451 452 461 460
8 371 372 381 380 452 453 462 461
8 372 373 382 381 453 454 463 462
8 373 374 383 382 454 455 464 463
8 374 375 384 383 455 456 465 464
8 375 376 385 384 456 457 466 465
8 376 377 386 385 457 458 467 466
8 378 379 388 387 459 460 469 468
8 379 380 389 388 460 461 470 469
8 380 381 390 389 461 462 471 470
8 381 382 391 390 462 463 472 471
8 382 383 392 391 463 464 473 472
8 383 384 393 392 464 465 474 473
8 384 385 394 393 465 466 475 474
8 385 386 395 394 466 467 476 475
8 387 388 397 396 468 469 478 477
8 388 389 398 397 469 470 479 478
8 389 390 399 398 470 471 480 479
8 390 391 400 399 471 472 481 480
8 391 392 401 400 472 473 482 481
8 392 393 402 401 473 474 483 482
8 393 394 403 402 474 475 484 483
8 394 395 404 403 475 476 485 484
8 405 406 415 414 486 487 496 495
8 406 407 416 415 487 488 497 496
8 407 408 417 416 488 489 498 497
8 408 409 418 417 489 490 499 498
8 409 410 419 418 490 491 500 499
8 410 411 420 419 491 492 501 500
8 411 412 421 420 492 493 502 501
8 412 413 422 421 493 494 503 502
8 414 415 424 423 495 496 505 504
8 415 416 425 424 496 497 506 505
8 416 417 426 425 497 498 507 506
8 417 418 427 426 498 499 508 507
8 418 419 428 427 499 500 509 508
8 419 420 429 428 500 501 510 509
8 420 421 430 429 501 502 511 510
8 421 422 431 430 502 503 512 511
8 423 424 433 432 504 505 514 513
8 424 425 434 433 505 506 515 514
8 425 426 435 434 506 507 516 515
8 426 427 436 435 507 508 517 516
8 427 428 437 436 508 509 518 517
8 428 429 438 437 509 510 519 518
8 429 430 439 438 510 511 520 519
8 430 431 440 439 511 512 521 520
8 432 433 442 441 513 514 523 522
8 433 434 443 442 514 515 524 523
8 434 435 444 443 515 516 525 524
8 435 436 445 444 516 517 526 525
8 436 437 446 445 517 518 527 526
8 437 438 447 446 518 519 528 527
8 438 439 448 447 519 520 529 528
8 439 440 449 448 520 521 530 529
8 441 442 451 450 522 523 532 531
8 442 443 452 451 523 524 533 532
8 443 444 453 452 524 525 534 533
8 444 445 454 453 525 526 535 534
8 445 446 455 454 526 527 536 535
8 446 447 456 455 527 528 537 536
8 447 448 457 456 528 529 538 537
8 448 449 458 457 529 530 539 538
8 450 451 460 459 531 532 541 540
8 451 452 461 460 532 533 542 541
8 452 453 462 461 533 534 543 542
8 453 454 463 462 534 535 544 543
8 454 455 464 463 535 536 545 544
8 455 456 465 464 536 537 546 545
8 456 457 466 465 537 538 547 546
8 457 458 467 466 538 539 548 547
8 459 460 469 468 540 541 550 549
8 460 461 470 469 541 542 551 550
8 461 462 471 470 542 543 552 551
8 462 463 472 471 543 544 553 552
8 463 464 473 472 544 545 554 553
8 464 465 474 473 545 546 555 554
8 465 466 475 474 546 547 556 555
8 466 467 476 475 547 548 557 556
8 468 469 478 477 549 550 559 558
8 469 470 479 478 550 551 560 559
8 470 471 480 479 551 552 561 560
8 471 472 481 480 552 553 562 561
8 472 473 482 481 553 554 563 562
8 473 474 483 482 554 555 564 563
8 474 475 484 483 555 556 565 564
8 475 476 485 484 556 557 566 565
8 486 487 496 495 567 568 577 576
8 487 488 497 496 568 569 578 577
8 488 489 498 497 569 570 579 578
8 489 490 499 498 570 571 580 579
8 490 491 500 499 571 572 581 580
8 491 492 501 500 572 573 582 581
8 492 493 502 501 573 574 583 582
8 493 494 503 502 574 575 584 583
8 495 496 505 504 576 577 586 585
8 496 497 506 505 577 578 587 586
8 497 498 507 506 578 579 588 587
8 498 499 508 507 579 580 589 588
8 499 500 509 508 580 581 590 589
8 500 501 510 509 581 582 591 590
8 501 502 511 510 582 583 592 591
8 502 503 512 511 583 584 593 592
8 504 505 514 513 585 586 595 594
8 505 506 515 514 586 587 596 595
8 506 507 516 515 587 588 597 596
8 507 508 517 516 588 589 598 597
8 508 509 518 517 589 590 599 598
8 509 510 519 518 590 591 600 599
8 510 511 520 519 591 592 601 600
8 511 512 521 520 592 593 602 601
8 513 514 523 522 594 595 604 603
8 514 515 524 523 595 596 605 604
8 515 516 525 524 596 597 606 605
8 516 517 526 525 597 598 607 606
8 517 518 527 526 598 599 608 607
8 518 519 528 527 599 600 609 608
8 519 520 529 528 600 601 610 609
8 520 521 530 529 601 602 611 610
8 522 523 532 531 603 604 613 612
8 523 524 533 532 604 605 614 613
8 524 525 534 533 605 606 615 614
8 525 526 535 534 606 607 616 615
8 526 527 536 535 607 608 617 616
8 527 528 537 536 608 609 618 617
8 528 529 538 537 609 610 619 618
8 529 530 539 538 610 611 620 619
8 531 532 541 540 612 613 622 621
8 532 533 542 541 613 614 623 622
8 533 534 543 542 614 615 624 623
8 534 535 544 543 615 616 625 624
8 535 536 545 544 616 617 626 625
8 536 537 546 545 617 618 627 626
8 537 538 547 546 618 619 628 627
8 538 539 548 547 619 620 629 628
8 540 541 550 549 621 622 631 630
8 541 542 551 550 622 623 632 631
8 542 543 552 551 623 624 633 632
8 543 544 553 552 624 625 634 633
8 544 545 554 553 625 626 635 634
8 545 546 555 554 626 627 636 635
8 546 547 556 555 627 628 637 636
8 547 548 557 556 628 629 638 637
8 549 550 559 558 630 631 640 639
8 550 551 560 559 631 632 641 640
8 551 552 561 560 632 633 642 641
8 552 553 562 561 633 634 643 642
8 553 554 563 562 634 635 644 643
8 554 555 564 563 635 636 645 644
8 555 556 565 564 636 637 646 645
8 556 557 566 565 637 638 647 646
8 567 568 577 576 648 649 658 657
8 568 569 578 577 649 650 659 658
8 569 570 579 578 650 651 660 659
8 570 571 580 579 651 652 661 660
8 571 572 581 580 652 653 662 661
8 572 573 582 581 653 654 663 662
8 573 574 583 582 654 655 664 663
8 574 575 584 583 655 656 665 664
8 576 577 586 585 657 658 667 666
8 577 578 587 586 658 659 668 667
8 578 579 588 587 659 660 669 668
8 579 580 589 588 660 661 670 669
8 580 581 590 589 661 662 671 670
8 581 582 591 590 662 663 672 671
8 582 583 592 591 663 664 673 672
8 583 584 593 592 664 665 674 673
8 585 586 595 594 666 667 676 675
8 586 587 596 595 667 668 677 676
8 587 588 597 596 668 669 678 677
8 588 589 598 597 669 670 679 678
8 589 590 599 598 670 671 680 679
8 590 591 600 599 671 672 681 680
8 591 592 601 600 672 673 682 681
8 592 593 602 601 673 674 683 682
8 594 595 604 603 675 676 685 684
8 595 596 605 604 676 677 686 685
8 596 597 606 605 677 678 687 686
8 597 598 607 606 678 679 688 687
8 598 599 608 607 679 680 689 688
8 599 600 609 608 680 681 690 689
8 600 601 610 609 681 682 691 690
8 601 602 611 610 682 683 692 691
8 603 604 613 612 684 685 694 693
8 604 605 614 613 685 686 695 694
8 605 606 615 614 686 687 696 695
8 606 607 616 615 687 688 697 696
8 607 608 617 616 688 689 698 697
8 608 609 618 617 689 690 699 698
8 609 610 619 618 690 691 700 699
8 610 611 620 619 691 692 701 700
8 612 613 622 621 693 694 703 702
8 613 614 623 622 694 695 704 703
8 614 615 624 623 695 696 705 704
8 615 616 625 624 696 697 706 705
8 616 617 626 625 697 698 707 706
8 617 618 627 626 698 699 708 707
8 618 619 628 627 699 700 709 708
8 619 620 629 628 700 701 710 709
8 621 622 631 630 702 703 712 711
8 622 623 632 631 703 704 713 712
8 623 624 633 632 704 705 714 713
8 624 625 634 633 705 706 715 714
8 625 626 635 634 706 707 716 715
8 626 627 636 635 707 708 717 716
8 627 628 637 636 708 709 718 717
8 628 629 638 637 709 710 719 718
8 630 631 640 639 711 712 721 720
8 631 632 641 640 712 713 722 721
8 632 633 642 641 713 714 723 722
8 633 634 643 642 714 715 724 723
8 634 635 644 643 715 716 725 724
8 635 636 645 644 716 717 726 725
8 636 637 646 645 717 718 727 726
8 637 638 647 646 718 719 728 727
CELL_TYPES 512
12
12
12
12
12
12
12
12
12
12
12
12
12
12
12
12
12
12
12
12
12
12
12
12
12
12
12
12
12
12
12
12
12
12
12
12
12
12
12
12
12
12
12
12
12
12
12
12
12
12
12
12
12
12
12
12
12
12
12
12
12
12
12
12
12
12
12
12
12
12
12
12
12
12
12
12
12
12
12
12
12
12
12
12
12
12
12
12
12
12
12
12
12
12
12
12
12
12
12
12
12
12
12
12
12
12
12
12
12
12
12
12
12
12
12
12
12
12
12
12
12
12
12
12
12
12
12
12
12
12
12
12
12
12
12
12
12
12
12
12
12
12
12
12
12
12
12
12
12
12
12
12
12
12
12
12
12
12
12
12
12
12
12
12
12
12
12
12
12
12
12
12
12
12
12
12
12
12
12
12
12
12
12
12
12
12
12
12
12
12
12
12
12
12
12
12
12
12
12
12
12
12
12
12
12
12
12
12
12
12
12
12
12
12
12
12
12
12
12
12
12
12
12
12
12
12
12
12
12
12
12
12
12
12
12
12
12
12
12
12
12
12
12
12
12
12
12
12
12
12
12
12
12
12
12
12
12
12
12
12
12
12
12
12
12
12
12
12
12
12
12
12
12
12
12
12
12
12
12
12
12
12
12
12
12
12
12
12
12
12
12
12
12
12
12
12
12
12
12
12
12
12
12
12
12
12
12
12
12
12
12
12
12
12
12
12
12
12
12
12
12
12
12
12
12
12
12
12
12
12
12
12
12
12
12
12
12
12
12
12
12
12
12
12
12
12
12
12
12
12
12
12
12
12
12
12
12
12
12
12
12
12
12
12
12
12
12
12
12
12
12
12
12
12
12
12
12
12
12
12
12
12
12
12
12
12
12
12
12
12
12
12
12
12
12
12
12
12
12
12
12
12
12
12
12
12
12
12
12
12
12
12
12
12
12
12
12
12
12
12
12
12
12
12
12
12
12
12
12
12
12
12
12
12
12
12
12
12
12
12
12
12
12
12
12
12
12
12
12
12
12
12
12
12
12
12
12
12
12
12
12
12
12
12
12
12
12
12
12
12
12
12
12
12
12
12
12
12
12
12
12
12
12
12
12
12
12
12
12
12
12
12
12
12
12
12
12
12
12
12
12
12
12
12
12
12
12
12
12
12
12
12
CELL_DATA 512
SCALARS Element_Stress float 1
LOOKUP_TABLE default
66.7560
87.4914
86.6224
64.6761
34.9648
15.5110
18.1151
41.1976
61.5577
75.0496
74.4841
60.2043
40.8720
28.2140
29.9084
44.9275
52.9769
54.5122
54.4478
52.8228
50.6229
49.1825
49.3753
51.0844
44.0111
33.0535
33.5128
45.1103
60.8112
71.0915
69.7153
57.5175
37.7925
18.1698
18.9922
39.7609
67.8778
86.2877
83.8233
61.9795
36.4933
15.0602
15.9585
38.6432
69.3542
89.4625
86.7707
62.9117
40.5673
24.8111
25.4715
42.1479
64.7246
79.5069
77.5281
59.9885
48.5915
44.0162
44.2080
49.0504
55.6063
59.8987
59.3241
54.2310
70.5060
91.2414
90.3724
68.4261
38.7148
19.2610
21.8651
44.9476
65.3077
78.7996
78.2341
63.9543
44.6220
31.9640
33.6584
48.6775
56.7269
58.2622
58.1978
56.5728
54.3729
52.9325
53.1253
54.8344
47.7611
36.8035
37.2628
48.8603
64.5612
74.8415
73.4653
61.2675
41.5425
21.9198
22.7422
43.5109
71.6278
90.0377
87.5733
65.7295
40.2433
18.8102
19.7085
42.3932
73.1042
93.2125
90.5207
66.6617
44.3173
28.5611
29.2215
45.8979
68.4746
83.2569
81.2781
63.7385
52.3415
47.7662
47.9580
52.8004
59.3563
63.6487
63.0741
57.9810
74.2560
94.9914
94.1224
72.1761
42.4648
23.0110
25.6151
48.6976
69.0577
82.5496
81.9841
67.7043
48.3720
35.7140
37.4084
52.4275
60.4769
62.0122
61.9478
60.3228
58.1229
56.6825
56.8753
58.5844
51.5111
40.5535
41.0128
52.6103
68.3112
78.5915
77.2153
65.0175
45.2925
25.6698
26.4922
47.2609
75.3778
93.7877
91.3233
69.4795
43.9933
22.5602
23.4585
46.1432
76.8542
96.9625
94.2707
70.4117
48.0673
32.3111
32.9715
49.6479
72.2246
87.0069
85.0281
67.4885
56.0915
51.5162
51.7080
56.5504
63.1063
67.3987
66.8241
61.7310
78.0060
98.7414
97.8724
75.9261
46.2148
26.7610
29.3651
52.4476
72.8077
86.2996
85.7341
71.4543
52.1220
39.4640
41.1584
56.1775
64.2269
65.7622
65.6978
64.0728
61.8729
60.4325
60.6253
62.3344
55.2611
44.3035
44.7628
56.3603
72.0612
82.3415
80.9653
68.7675
49.0425
29.4198
30.2422
51.0109
79.1278
97.5377
95.0733
73.2295
47.7433
26.3102
27.2085
49.8932
80.6042
100.7125
98.0207
74.1617
51.8173
36.0611
36.7215
53.3979
75.9746
90.7569
88.7781
71.2385
59.8415
55.2662
55.4580
60.3004
66.8563
71.1487
70.5741
65.4810
81.7560
102.4914
101.6224
79.6761
49.9648
30.5110
33.1151
56.1976
76.5577
90.0496
89.4841
75.2043
55.8720
43.2140
44.9084
59.9275
67.9769
69.5122
69.4478
67.8228
65.6229
64.1825
64.3753
66.0844
59.0111
48.0535
48.5128
60.1103
75.8112
86.0915
84.7153
72.5175
52.7925
33.1698
33.9922
54.7609
82.8778
101.2877
98.8233
76.9795
51.4933
30.0602
30.9585
53.6432
84.3542
104.4625
101.7707
77.9117
55.5673
39.8111
40.4715
57.1479
79.7246
94.5069
92.5281
74.9885
63.5915
59.0162
59.2080
64.0504
70.6063
74.8987
74.3241
69.2310
85.5060
106.2414
105.3724
83.4261
53.7148
34.2610
36.8651
59.9476
80.3077
93.7996
93.2341
78.9543
59.6220
46.9640
48.6584
63.6775
71.7269
73.2622
73.1978
71.5728
69.3729
67.9325
68.1253
69.8344
62.7611
51.8035
52.2628
63.8603
79.5612
89.8415
88.4653
76.2675
56.5425
36.9198
37.7422
58.5109
86.6278
105.0377
102.5733
80.7295
55.2433
33.8102
34.7085
57.3932
88.1042
108.2125
105.5207
81.6617
59.3173
43.5611
44.2215
60.8979
83.4746
98.2569
96.2781
78.7385
67.3415
62.7662
62.9580
67.8004
74.3563
78.6487
78.0741
72.9810
89.2560
109.9914
109.1224
87.1761
57.4648
38.0110
40.6151
63.6976
84.0577
97.5496
96.9841
82.7043
63.3720
50.7140
52.4084
67.4275
75.4769
77.0122
76.9478
75.3228
73.1229
71.6825
71.8753
73.5844
66.5111
55.5535
56.0128
67.6103
83.3112
93.5915
92.2153
80.0175
60.2925
40.6698
41.4922
62.2609
90.3778
108.7877
106.3233
84.4795
58.9933
37.5602
38.4585
61.1432
91.8542
111.9625
109.2707
85.4117
63.0673
47.3111
47.9715
64.6479
87.2246
102.0069
100.0281
82.4885
71.0915
66.5162
66.7080
71.5504
78.1063
82.3987
81.8241
76.7310
93.0060
113.7414
112.8724
90.9261
61.2148
41.7610
44.3651
67.4476
87.8077
101.2996
100.7341
86.4543
67.1220
54.4640
56.1584
71.1775
79.2269
80.7622
80.6978
79.0728
76.8729
75.4325
75.6253
77.3344
70.2611
59.3035
59.7628
71.3603
87.0612
97.3415
95.9653
83.7675
64.0425
44.4198
45.2422
66.0109
94.1278
112.5377
110.0733
88.2295
62.7433
41.3102
42.2085
64.8932
95.6042
115.7125
113.0207
89.1617
66.8173
51.0611
51.7215
68.3979
90.9746
105.7569
103.7781
86.2385
74.8415
70.2662
70.4580
75.3004
81.8563
86.1487
85.5741
80.4810
SCALARS Element_Group int 1
LOOKUP_TABLE default
1
1
1
1
2
2
2
2
1
1
1
1
2
2
2
2
1
1
1
1
2
2
2
2
1
1
1
1
2
2
2
2
3
3
3
3
4
4
4
4
3
3
3
3
4
4
4
4
3
3
3
3
4
4
4
4
3
3
3
3
4
4
4
4
1
1
1
1
2
2
2
2
1
1
1
1
2
2
2
2
1
1
1
1
2
2
2
2
1
1
1
1
2
2
2
2
3
3
3
3
4
4
4
4
3
3
3
3
4
4
4
4
3
3
3
3
4
4
4
4
3
3
3
3
4
4
4
4
1
1
1
1
2
2
2
2
1
1
1
1
2
2
2
2
1
1
1
1
2
2
2
2
1
1
1
1
2
2
2
2
3
3
3
3
4
4
4
4
3
3
3
3
4
4
4
4
3
3
3
3
4
4
4
4
3
3
3
3
4
4
4
4
1
1
1
1
2
2
2
2
1
1
1
1
2
2
2
2
1
1
1
1
2
2
2
2
1
1
1
1
2
2
2
2
3
3
3
3
4
4
4
4
3
3
3
3
4
4
4
4
3
3
3
3
4
4
4
4
3
3
3
3
4
4
4
4
1
1
1
1
2
2
2
2
1
1
1
1
2
2
2
2
1
1
1
1
2
2
2
2
1
1
1
1
2
2
2
2
3
3
3
3
4
4
4
4
3
3
3
3
4
4
4
4
3
3
3
3
4
4
4
4
3
3
3
3
4
4
4
4
1
1
1
1
2
2
2
2
1
1
1
1
2
2
2
2
1
1
1
1
2
2
2
2
1
1
1
1
2
2
2
2
3
3
3
3
4
4
4
4
3
3
3
3
4
4
4
4
3
3
3
3
4
4
4
4
3
3
3
3
4
4
4
4
1
1
1
1
2
2
2
2
1
1
1
1
2
2
2
2
1
1
1
1
2
2
2
2
1
1
1
1
2
2
2
2
3
3
3
3
4
4
4
4
3
3
3
3
4
4
4
4
3
3
3
3
4
4
4
4
3
3
3
3
4
4
4
4
1
1
1
1
2
2
2
2
1
1
1
1
2
2
2
2
1
1
1
1
2
2
2
2
1
1
1
1
2
2
2
2
3
3
3
3
4
4
4
4
3
3
3
3
4
4
4
4
3
3
3
3
4
4
4
4
3
3
3
3
4
4
4
4
