# vtk DataFile Version 5.1
vtk output
ASCII
DATASET UNSTRUCTURED_GRID
POINTS 12 float
0 0 0 1 0 0 2 0 0 
0 1 0 1 1 0 2 1 0 
0 0 1 1 0 1 2 0 1 
0 1 1 1 1 1 2 1 1 

CELLS 3 39
OFFSETS vtktypeint64
0 31 39 
CONNECTIVITY vtktypeint64
6 4 0 3 9 6 4 1 7 
10 4 4 0 1 7 6 4 3 
9 10 4 4 0 3 4 1 4 
6 7 10 9 1 2 5 4 7 
8 11 10 
CELL_TYPES 2
42
12

POINT_DATA 12
FIELD FieldData 2
temperature 1 12 float
300 320 340 300 320 340 300 320 340 
300 320 340 
velocity 3 12 float
1 -0.05 0 1 -0.05 0 1 -0.05 0 
1 0.05 0 1 0.05 0 1 0.05 0 
1 -0.05 0 1 -0.05 0 1 -0.05 0 
1 0.05 0 1 0.05 0 1 0.05 0 

