<?xml version="1.0"?>
<!-- Three polyhedral cells (VTK cell type 42), written by hand for this project (no external data or licence): two unit cubes that share
     a face, and an L-shaped prism whose two caps are concave 6-gons. Point data "Temperature" (10 x the x coordinate), cell data "Cell". -->
<VTKFile type="UnstructuredGrid" version="1.0" byte_order="LittleEndian">
<UnstructuredGrid>
<Piece NumberOfPoints="24" NumberOfCells="3">
<Points>
<DataArray type="Float32" NumberOfComponents="3" format="ascii">
0 0 0  1 0 0  2 0 0  0 1 0  1 1 0  2 1 0
0 0 1  1 0 1  2 0 1  0 1 1  1 1 1  2 1 1
4 0 0  6 0 0  6 1 0  5 1 0  5 2 0  4 2 0
4 0 1  6 0 1  6 1 1  5 1 1  5 2 1  4 2 1
</DataArray>
</Points>
<Cells>
<DataArray type="Int64" Name="connectivity" format="ascii">
0 1 3 4 6 7 9 10
1 2 4 5 7 8 10 11
12 13 14 15 16 17 18 19 20 21 22 23
</DataArray>
<DataArray type="Int64" Name="offsets" format="ascii">8 16 28</DataArray>
<DataArray type="UInt8" Name="types" format="ascii">42 42 42</DataArray>
<DataArray type="Int64" Name="faces" format="ascii">
6  4 0 3 4 1  4 6 7 10 9  4 0 1 7 6  4 3 9 10 4  4 0 6 9 3  4 1 4 10 7
6  4 1 4 5 2  4 7 8 11 10  4 1 2 8 7  4 4 10 11 5  4 1 7 10 4  4 2 5 11 8
8  6 12 13 14 15 16 17  6 18 19 20 21 22 23  4 12 13 19 18  4 13 14 20 19  4 14 15 21 20  4 15 16 22 21  4 16 17 23 22  4 17 12 18 23
</DataArray>
<DataArray type="Int64" Name="faceoffsets" format="ascii">31 62 107</DataArray>
</Cells>
<PointData>
<DataArray type="Float32" Name="Temperature" format="ascii">
0 10 20 0 10 20 0 10 20 0 10 20
40 60 60 50 50 40 40 60 60 50 50 40
</DataArray>
</PointData>
<CellData>
<DataArray type="Float32" Name="Cell" format="ascii">1 2 3</DataArray>
</CellData>
</Piece>
</UnstructuredGrid>
</VTKFile>
