<?xml version="1.0"?>
<VTKFile type="UnstructuredGrid" version="0.1" byte_order="LittleEndian">
<UnstructuredGrid>
<Piece NumberOfPoints="325" NumberOfCells="192">
<PointData>
<DataArray type="Float32" Name="Stress_bending" NumberOfComponents="6" format="ascii">
-100 0 0 0 0 0
-91.6667 0 0 0 0 0
-83.3333 0 0 0 0 0
-75 0 0 0 0 0
-66.6667 0 0 0 0 0
-58.3333 0 0 0 0 0
-50 0 0 0 0 0
-41.6667 0 0 0 0 0
-33.3333 0 0 0 0 0
-25 0 0 0 0 0
-16.6667 0 0 0 0 0
-8.33333 0 0 0 0 0
-0 0 0 0 0 0
-50 0 0 15 0 0
-45.8333 0 0 13.75 0 0
-41.6667 0 0 12.5 0 0
-37.5 0 0 11.25 0 0
-33.3333 0 0 10 0 0
-29.1667 0 0 8.75 0 0
-25 0 0 7.5 0 0
-20.8333 0 0 6.25 0 0
-16.6667 0 0 5 0 0
-12.5 0 0 3.75 0 0
-8.33333 0 0 2.5 0 0
-4.16667 0 0 1.25 0 0
-0 0 0 0 0 0
0 0 0 20 0 0
0 0 0 18.3333 0 0
0 0 0 16.6667 0 0
0 0 0 15 0 0
0 0 0 13.3333 0 0
0 0 0 11.6667 0 0
0 0 0 10 0 0
0 0 0 8.33333 0 0
0 0 0 6.66667 0 0
0 0 0 5 0 0
0 0 0 3.33333 0 0
0 0 0 1.66667 0 0
0 0 0 0 0 0
50 0 0 15 0 0
45.8333 0 0 13.75 0 0
41.6667 0 0 12.5 0 0
37.5 0 0 11.25 0 0
33.3333 0 0 10 0 0
29.1667 0 0 8.75 0 0
25 0 0 7.5 0 0
20.8333 0 0 6.25 0 0
16.6667 0 0 5 0 0
12.5 0 0 3.75 0 0
8.33333 0 0 2.5 0 0
4.16667 0 0 1.25 0 0
0 0 0 0 0 0
100 0 0 0 0 0
91.6667 0 0 0 0 0
83.3333 0 0 0 0 0
75 0 0 0 0 0
66.6667 0 0 0 0 0
58.3333 0 0 0 0 0
50 0 0 0 0 0
41.6667 0 0 0 0 0
33.3333 0 0 0 0 0
25 0 0 0 0 0
16.6667 0 0 0 0 0
8.33333 0 0 0 0 0
0 0 0 0 0 0
-100 0 0 0 0 0
-91.6667 0 0 0 0 0
-83.3333 0 0 0 0 0
-75 0 0 0 0 0
-66.6667 0 0 0 0 0
-58.3333 0 0 0 0 0
-50 0 0 0 0 0
-41.6667 0 0 0 0 0
-33.3333 0 0 0 0 0
-25 0 0 0 0 0
-16.6667 0 0 0 0 0
-8.33333 0 0 0 0 0
-0 0 0 0 0 0
-50 0 0 15 0 0
-45.8333 0 0 13.75 0 0
-41.6667 0 0 12.5 0 0
-37.5 0 0 11.25 0 0
-33.3333 0 0 10 0 0
-29.1667 0 0 8.75 0 0
-25 0 0 7.5 0 0
-20.8333 0 0 6.25 0 0
-16.6667 0 0 5 0 0
-12.5 0 0 3.75 0 0
-8.33333 0 0 2.5 0 0
-4.16667 0 0 1.25 0 0
-0 0 0 0 0 0
0 0 0 20 0 0
0 0 0 18.3333 0 0
0 0 0 16.6667 0 0
0 0 0 15 0 0
0 0 0 13.3333 0 0
0 0 0 11.6667 0 0
0 0 0 10 0 0
0 0 0 8.33333 0 0
0 0 0 6.66667 0 0
0 0 0 5 0 0
0 0 0 3.33333 0 0
0 0 0 1.66667 0 0
0 0 0 0 0 0
50 0 0 15 0 0
45.8333 0 0 13.75 0 0
41.6667 0 0 12.5 0 0
37.5 0 0 11.25 0 0
33.3333 0 0 10 0 0
29.1667 0 0 8.75 0 0
25 0 0 7.5 0 0
20.8333 0 0 6.25 0 0
16.6667 0 0 5 0 0
12.5 0 0 3.75 0 0
8.33333 0 0 2.5 0 0
4.16667 0 0 1.25 0 0
0 0 0 0 0 0
100 0 0 0 0 0
91.6667 0 0 0 0 0
83.3333 0 0 0 0 0
75 0 0 0 0 0
66.6667 0 0 0 0 0
58.3333 0 0 0 0 0
50 0 0 0 0 0
41.6667 0 0 0 0 0
33.3333 0 0 0 0 0
25 0 0 0 0 0
16.6667 0 0 0 0 0
8.33333 0 0 0 0 0
0 0 0 0 0 0
-100 0 0 0 0 0
-91.6667 0 0 0 0 0
-83.3333 0 0 0 0 0
-75 0 0 0 0 0
-66.6667 0 0 0 0 0
-58.3333 0 0 0 0 0
-50 0 0 0 0 0
-41.6667 0 0 0 0 0
-33.3333 0 0 0 0 0
-25 0 0 0 0 0
-16.6667 0 0 0 0 0
-8.33333 0 0 0 0 0
-0 0 0 0 0 0
-50 0 0 15 0 0
-45.8333 0 0 13.75 0 0
-41.6667 0 0 12.5 0 0
-37.5 0 0 11.25 0 0
-33.3333 0 0 10 0 0
-29.1667 0 0 8.75 0 0
-25 0 0 7.5 0 0
-20.8333 0 0 6.25 0 0
-16.6667 0 0 5 0 0
-12.5 0 0 3.75 0 0
-8.33333 0 0 2.5 0 0
-4.16667 0 0 1.25 0 0
-0 0 0 0 0 0
0 0 0 20 0 0
0 0 0 18.3333 0 0
0 0 0 16.6667 0 0
0 0 0 15 0 0
0 0 0 13.3333 0 0
0 0 0 11.6667 0 0
0 0 0 10 0 0
0 0 0 8.33333 0 0
0 0 0 6.66667 0 0
0 0 0 5 0 0
0 0 0 3.33333 0 0
0 0 0 1.66667 0 0
0 0 0 0 0 0
50 0 0 15 0 0
45.8333 0 0 13.75 0 0
41.6667 0 0 12.5 0 0
37.5 0 0 11.25 0 0
33.3333 0 0 10 0 0
29.1667 0 0 8.75 0 0
25 0 0 7.5 0 0
20.8333 0 0 6.25 0 0
16.6667 0 0 5 0 0
12.5 0 0 3.75 0 0
8.33333 0 0 2.5 0 0
4.16667 0 0 1.25 0 0
0 0 0 0 0 0
100 0 0 0 0 0
91.6667 0 0 0 0 0
83.3333 0 0 0 0 0
75 0 0 0 0 0
66.6667 0 0 0 0 0
58.3333 0 0 0 0 0
50 0 0 0 0 0
41.6667 0 0 0 0 0
33.3333 0 0 0 0 0
25 0 0 0 0 0
16.6667 0 0 0 0 0
8.33333 0 0 0 0 0
0 0 0 0 0 0
-100 0 0 0 0 0
-91.6667 0 0 0 0 0
-83.3333 0 0 0 0 0
-75 0 0 0 0 0
-66.6667 0 0 0 0 0
-58.3333 0 0 0 0 0
-50 0 0 0 0 0
-41.6667 0 0 0 0 0
-33.3333 0 0 0 0 0
-25 0 0 0 0 0
-16.6667 0 0 0 0 0
-8.33333 0 0 0 0 0
-0 0 0 0 0 0
-50 0 0 15 0 0
-45.8333 0 0 13.75 0 0
-41.6667 0 0 12.5 0 0
-37.5 0 0 11.25 0 0
-33.3333 0 0 10 0 0
-29.1667 0 0 8.75 0 0
-25 0 0 7.5 0 0
-20.8333 0 0 6.25 0 0
-16.6667 0 0 5 0 0
-12.5 0 0 3.75 0 0
-8.33333 0 0 2.5 0 0
-4.16667 0 0 1.25 0 0
-0 0 0 0 0 0
0 0 0 20 0 0
0 0 0 18.3333 0 0
0 0 0 16.6667 0 0
0 0 0 15 0 0
0 0 0 13.3333 0 0
0 0 0 11.6667 0 0
0 0 0 10 0 0
0 0 0 8.33333 0 0
0 0 0 6.66667 0 0
0 0 0 5 0 0
0 0 0 3.33333 0 0
0 0 0 1.66667 0 0
0 0 0 0 0 0
50 0 0 15 0 0
45.8333 0 0 13.75 0 0
41.6667 0 0 12.5 0 0
37.5 0 0 11.25 0 0
33.3333 0 0 10 0 0
29.1667 0 0 8.75 0 0
25 0 0 7.5 0 0
20.8333 0 0 6.25 0 0
16.6667 0 0 5 0 0
12.5 0 0 3.75 0 0
8.33333 0 0 2.5 0 0
4.16667 0 0 1.25 0 0
0 0 0 0 0 0
100 0 0 0 0 0
91.6667 0 0 0 0 0
83.3333 0 0 0 0 0
75 0 0 0 0 0
66.6667 0 0 0 0 0
58.3333 0 0 0 0 0
50 0 0 0 0 0
41.6667 0 0 0 0 0
33.3333 0 0 0 0 0
25 0 0 0 0 0
16.6667 0 0 0 0 0
8.33333 0 0 0 0 0
0 0 0 0 0 0
-100 0 0 0 0 0
-91.6667 0 0 0 0 0
-83.3333 0 0 0 0 0
-75 0 0 0 0 0
-66.6667 0 0 0 0 0
-58.3333 0 0 0 0 0
-50 0 0 0 0 0
-41.6667 0 0 0 0 0
-33.3333 0 0 0 0 0
-25 0 0 0 0 0
-16.6667 0 0 0 0 0
-8.33333 0 0 0 0 0
-0 0 0 0 0 0
-50 0 0 15 0 0
-45.8333 0 0 13.75 0 0
-41.6667 0 0 12.5 0 0
-37.5 0 0 11.25 0 0
-33.3333 0 0 10 0 0
-29.1667 0 0 8.75 0 0
-25 0 0 7.5 0 0
-20.8333 0 0 6.25 0 0
-16.6667 0 0 5 0 0
-12.5 0 0 3.75 0 0
-8.33333 0 0 2.5 0 0
-4.16667 0 0 1.25 0 0
-0 0 0 0 0 0
0 0 0 20 0 0
0 0 0 18.3333 0 0
0 0 0 16.6667 0 0
0 0 0 15 0 0
0 0 0 13.3333 0 0
0 0 0 11.6667 0 0
0 0 0 10 0 0
0 0 0 8.33333 0 0
0 0 0 6.66667 0 0
0 0 0 5 0 0
0 0 0 3.33333 0 0
0 0 0 1.66667 0 0
0 0 0 0 0 0
50 0 0 15 0 0
45.8333 0 0 13.75 0 0
41.6667 0 0 12.5 0 0
37.5 0 0 11.25 0 0
33.3333 0 0 10 0 0
29.1667 0 0 8.75 0 0
25 0 0 7.5 0 0
20.8333 0 0 6.25 0 0
16.6667 0 0 5 0 0
12.5 0 0 3.75 0 0
8.33333 0 0 2.5 0 0
4.16667 0 0 1.25 0 0
0 0 0 0 0 0
100 0 0 0 0 0
91.6667 0 0 0 0 0
83.3333 0 0 0 0 0
75 0 0 0 0 0
66.6667 0 0 0 0 0
58.3333 0 0 0 0 0
50 0 0 0 0 0
41.6667 0 0 0 0 0
33.3333 0 0 0 0 0
25 0 0 0 0 0
16.6667 0 0 0 0 0
8.33333 0 0 0 0 0
0 0 0 0 0 0
</DataArray>
<DataArray type="Float32" Name="Stress_torsion" NumberOfComponents="6" format="ascii">
0 0 0 -50 0 50
0 0 0 -50 0 50
0 0 0 -50 0 50
0 0 0 -50 0 50
0 0 0 -50 0 50
0 0 0 -50 0 50
0 0 0 -50 0 50
0 0 0 -50 0 50
0 0 0 -50 0 50
0 0 0 -50 0 50
0 0 0 -50 0 50
0 0 0 -50 0 50
0 0 0 -50 0 50
0 0 0 -50 0 25
0 0 0 -50 0 25
0 0 0 -50 0 25
0 0 0 -50 0 25
0 0 0 -50 0 25
0 0 0 -50 0 25
0 0 0 -50 0 25
0 0 0 -50 0 25
0 0 0 -50 0 25
0 0 0 -50 0 25
0 0 0 -50 0 25
0 0 0 -50 0 25
0 0 0 -50 0 25
0 0 0 -50 0 -0
0 0 0 -50 0 -0
0 0 0 -50 0 -0
0 0 0 -50 0 -0
0 0 0 -50 0 -0
0 0 0 -50 0 -0
0 0 0 -50 0 -0
0 0 0 -50 0 -0
0 0 0 -50 0 -0
0 0 0 -50 0 -0
0 0 0 -50 0 -0
0 0 0 -50 0 -0
0 0 0 -50 0 -0
0 0 0 -50 0 -25
0 0 0 -50 0 -25
0 0 0 -50 0 -25
0 0 0 -50 0 -25
0 0 0 -50 0 -25
0 0 0 -50 0 -25
0 0 0 -50 0 -25
0 0 0 -50 0 -25
0 0 0 -50 0 -25
0 0 0 -50 0 -25
0 0 0 -50 0 -25
0 0 0 -50 0 -25
0 0 0 -50 0 -25
0 0 0 -50 0 -50
0 0 0 -50 0 -50
0 0 0 -50 0 -50
0 0 0 -50 0 -50
0 0 0 -50 0 -50
0 0 0 -50 0 -50
0 0 0 -50 0 -50
0 0 0 -50 0 -50
0 0 0 -50 0 -50
0 0 0 -50 0 -50
0 0 0 -50 0 -50
0 0 0 -50 0 -50
0 0 0 -50 0 -50
0 0 0 -25 0 50
0 0 0 -25 0 50
0 0 0 -25 0 50
0 0 0 -25 0 50
0 0 0 -25 0 50
0 0 0 -25 0 50
0 0 0 -25 0 50
0 0 0 -25 0 50
0 0 0 -25 0 50
0 0 0 -25 0 50
0 0 0 -25 0 50
0 0 0 -25 0 50
0 0 0 -25 0 50
0 0 0 -25 0 25
0 0 0 -25 0 25
0 0 0 -25 0 25
0 0 0 -25 0 25
0 0 0 -25 0 25
0 0 0 -25 0 25
0 0 0 -25 0 25
0 0 0 -25 0 25
0 0 0 -25 0 25
0 0 0 -25 0 25
0 0 0 -25 0 25
0 0 0 -25 0 25
0 0 0 -25 0 25
0 0 0 -25 0 -0
0 0 0 -25 0 -0
0 0 0 -25 0 -0
0 0 0 -25 0 -0
0 0 0 -25 0 -0
0 0 0 -25 0 -0
0 0 0 -25 0 -0
0 0 0 -25 0 -0
0 0 0 -25 0 -0
0 0 0 -25 0 -0
0 0 0 -25 0 -0
0 0 0 -25 0 -0
0 0 0 -25 0 -0
0 0 0 -25 0 -25
0 0 0 -25 0 -25
0 0 0 -25 0 -25
0 0 0 -25 0 -25
0 0 0 -25 0 -25
0 0 0 -25 0 -25
0 0 0 -25 0 -25
0 0 0 -25 0 -25
0 0 0 -25 0 -25
0 0 0 -25 0 -25
0 0 0 -25 0 -25
0 0 0 -25 0 -25
0 0 0 -25 0 -25
0 0 0 -25 0 -50
0 0 0 -25 0 -50
0 0 0 -25 0 -50
0 0 0 -25 0 -50
0 0 0 -25 0 -50
0 0 0 -25 0 -50
0 0 0 -25 0 -50
0 0 0 -25 0 -50
0 0 0 -25 0 -50
0 0 0 -25 0 -50
0 0 0 -25 0 -50
0 0 0 -25 0 -50
0 0 0 -25 0 -50
0 0 0 0 0 50
0 0 0 0 0 50
0 0 0 0 0 50
0 0 0 0 0 50
0 0 0 0 0 50
0 0 0 0 0 50
0 0 0 0 0 50
0 0 0 0 0 50
0 0 0 0 0 50
0 0 0 0 0 50
0 0 0 0 0 50
0 0 0 0 0 50
0 0 0 0 0 50
0 0 0 0 0 25
0 0 0 0 0 25
0 0 0 0 0 25
0 0 0 0 0 25
0 0 0 0 0 25
0 0 0 0 0 25
0 0 0 0 0 25
0 0 0 0 0 25
0 0 0 0 0 25
0 0 0 0 0 25
0 0 0 0 0 25
0 0 0 0 0 25
0 0 0 0 0 25
0 0 0 0 0 -0
0 0 0 0 0 -0
0 0 0 0 0 -0
0 0 0 0 0 -0
0 0 0 0 0 -0
0 0 0 0 0 -0
0 0 0 0 0 -0
0 0 0 0 0 -0
0 0 0 0 0 -0
0 0 0 0 0 -0
0 0 0 0 0 -0
0 0 0 0 0 -0
0 0 0 0 0 -0
0 0 0 0 0 -25
0 0 0 0 0 -25
0 0 0 0 0 -25
0 0 0 0 0 -25
0 0 0 0 0 -25
0 0 0 0 0 -25
0 0 0 0 0 -25
0 0 0 0 0 -25
0 0 0 0 0 -25
0 0 0 0 0 -25
0 0 0 0 0 -25
0 0 0 0 0 -25
0 0 0 0 0 -25
0 0 0 0 0 -50
0 0 0 0 0 -50
0 0 0 0 0 -50
0 0 0 0 0 -50
0 0 0 0 0 -50
0 0 0 0 0 -50
0 0 0 0 0 -50
0 0 0 0 0 -50
0 0 0 0 0 -50
0 0 0 0 0 -50
0 0 0 0 0 -50
0 0 0 0 0 -50
0 0 0 0 0 -50
0 0 0 25 0 50
0 0 0 25 0 50
0 0 0 25 0 50
0 0 0 25 0 50
0 0 0 25 0 50
0 0 0 25 0 50
0 0 0 25 0 50
0 0 0 25 0 50
0 0 0 25 0 50
0 0 0 25 0 50
0 0 0 25 0 50
0 0 0 25 0 50
0 0 0 25 0 50
0 0 0 25 0 25
0 0 0 25 0 25
0 0 0 25 0 25
0 0 0 25 0 25
0 0 0 25 0 25
0 0 0 25 0 25
0 0 0 25 0 25
0 0 0 25 0 25
0 0 0 25 0 25
0 0 0 25 0 25
0 0 0 25 0 25
0 0 0 25 0 25
0 0 0 25 0 25
0 0 0 25 0 -0
0 0 0 25 0 -0
0 0 0 25 0 -0
0 0 0 25 0 -0
0 0 0 25 0 -0
0 0 0 25 0 -0
0 0 0 25 0 -0
0 0 0 25 0 -0
0 0 0 25 0 -0
0 0 0 25 0 -0
0 0 0 25 0 -0
0 0 0 25 0 -0
0 0 0 25 0 -0
0 0 0 25 0 -25
0 0 0 25 0 -25
0 0 0 25 0 -25
0 0 0 25 0 -25
0 0 0 25 0 -25
0 0 0 25 0 -25
0 0 0 25 0 -25
0 0 0 25 0 -25
0 0 0 25 0 -25
0 0 0 25 0 -25
0 0 0 25 0 -25
0 0 0 25 0 -25
0 0 0 25 0 -25
0 0 0 25 0 -50
0 0 0 25 0 -50
0 0 0 25 0 -50
0 0 0 25 0 -50
0 0 0 25 0 -50
0 0 0 25 0 -50
0 0 0 25 0 -50
0 0 0 25 0 -50
0 0 0 25 0 -50
0 0 0 25 0 -50
0 0 0 25 0 -50
0 0 0 25 0 -50
0 0 0 25 0 -50
0 0 0 50 0 50
0 0 0 50 0 50
0 0 0 50 0 50
0 0 0 50 0 50
0 0 0 50 0 50
0 0 0 50 0 50
0 0 0 50 0 50
0 0 0 50 0 50
0 0 0 50 0 50
0 0 0 50 0 50
0 0 0 50 0 50
0 0 0 50 0 50
0 0 0 50 0 50
0 0 0 50 0 25
0 0 0 50 0 25
0 0 0 50 0 25
0 0 0 50 0 25
0 0 0 50 0 25
0 0 0 50 0 25
0 0 0 50 0 25
0 0 0 50 0 25
0 0 0 50 0 25
0 0 0 50 0 25
0 0 0 50 0 25
0 0 0 50 0 25
0 0 0 50 0 25
0 0 0 50 0 -0
0 0 0 50 0 -0
0 0 0 50 0 -0
0 0 0 50 0 -0
0 0 0 50 0 -0
0 0 0 50 0 -0
0 0 0 50 0 -0
0 0 0 50 0 -0
0 0 0 50 0 -0
0 0 0 50 0 -0
0 0 0 50 0 -0
0 0 0 50 0 -0
0 0 0 50 0 -0
0 0 0 50 0 -25
0 0 0 50 0 -25
0 0 0 50 0 -25
0 0 0 50 0 -25
0 0 0 50 0 -25
0 0 0 50 0 -25
0 0 0 50 0 -25
0 0 0 50 0 -25
0 0 0 50 0 -25
0 0 0 50 0 -25
0 0 0 50 0 -25
0 0 0 50 0 -25
0 0 0 50 0 -25
0 0 0 50 0 -50
0 0 0 50 0 -50
0 0 0 50 0 -50
0 0 0 50 0 -50
0 0 0 50 0 -50
0 0 0 50 0 -50
0 0 0 50 0 -50
0 0 0 50 0 -50
0 0 0 50 0 -50
0 0 0 50 0 -50
0 0 0 50 0 -50
0 0 0 50 0 -50
0 0 0 50 0 -50
</DataArray>
</PointData>
<CellData>
<DataArray type="Float32" Name="Stress_element" NumberOfComponents="6" format="ascii">
80 1.66667 0 0 0 0
80 5 0 0 0 0
80 8.33333 0 0 0 0
80 11.6667 0 0 0 0
80 15 0 0 0 0
80 18.3333 0 0 0 0
80 21.6667 0 0 0 0
80 25 0 0 0 0
80 28.3333 0 0 0 0
80 31.6667 0 0 0 0
80 35 0 0 0 0
80 38.3333 0 0 0 0
80 1.66667 0 0 0 0
80 5 0 0 0 0
80 8.33333 0 0 0 0
80 11.6667 0 0 0 0
80 15 0 0 0 0
80 18.3333 0 0 0 0
80 21.6667 0 0 0 0
80 25 0 0 0 0
80 28.3333 0 0 0 0
80 31.6667 0 0 0 0
80 35 0 0 0 0
80 38.3333 0 0 0 0
80 1.66667 0 0 0 0
80 5 0 0 0 0
80 8.33333 0 0 0 0
80 11.6667 0 0 0 0
80 15 0 0 0 0
80 18.3333 0 0 0 0
80 21.6667 0 0 0 0
80 25 0 0 0 0
80 28.3333 0 0 0 0
80 31.6667 0 0 0 0
80 35 0 0 0 0
80 38.3333 0 0 0 0
80 1.66667 0 0 0 0
80 5 0 0 0 0
80 8.33333 0 0 0 0
80 11.6667 0 0 0 0
80 15 0 0 0 0
80 18.3333 0 0 0 0
80 21.6667 0 0 0 0
80 25 0 0 0 0
80 28.3333 0 0 0 0
80 31.6667 0 0 0 0
80 35 0 0 0 0
80 38.3333 0 0 0 0
80 1.66667 0 0 0 0
80 5 0 0 0 0
80 8.33333 0 0 0 0
80 11.6667 0 0 0 0
80 15 0 0 0 0
80 18.3333 0 0 0 0
80 21.6667 0 0 0 0
80 25 0 0 0 0
80 28.3333 0 0 0 0
80 31.6667 0 0 0 0
80 35 0 0 0 0
80 38.3333 0 0 0 0
80 1.66667 0 0 0 0
80 5 0 0 0 0
80 8.33333 0 0 0 0
80 11.6667 0 0 0 0
80 15 0 0 0 0
80 18.3333 0 0 0 0
80 21.6667 0 0 0 0
80 25 0 0 0 0
80 28.3333 0 0 0 0
80 31.6667 0 0 0 0
80 35 0 0 0 0
80 38.3333 0 0 0 0
80 1.66667 0 0 0 0
80 5 0 0 0 0
80 8.33333 0 0 0 0
80 11.6667 0 0 0 0
80 15 0 0 0 0
80 18.3333 0 0 0 0
80 21.6667 0 0 0 0
80 25 0 0 0 0
80 28.3333 0 0 0 0
80 31.6667 0 0 0 0
80 35 0 0 0 0
80 38.3333 0 0 0 0
80 1.66667 0 0 0 0
80 5 0 0 0 0
80 8.33333 0 0 0 0
80 11.6667 0 0 0 0
80 15 0 0 0 0
80 18.3333 0 0 0 0
80 21.6667 0 0 0 0
80 25 0 0 0 0
80 28.3333 0 0 0 0
80 31.6667 0 0 0 0
80 35 0 0 0 0
80 38.3333 0 0 0 0
80 1.66667 0 0 0 0
80 5 0 0 0 0
80 8.33333 0 0 0 0
80 11.6667 0 0 0 0
80 15 0 0 0 0
80 18.3333 0 0 0 0
80 21.6667 0 0 0 0
80 25 0 0 0 0
80 28.3333 0 0 0 0
80 31.6667 0 0 0 0
80 35 0 0 0 0
80 38.3333 0 0 0 0
80 1.66667 0 0 0 0
80 5 0 0 0 0
80 8.33333 0 0 0 0
80 11.6667 0 0 0 0
80 15 0 0 0 0
80 18.3333 0 0 0 0
80 21.6667 0 0 0 0
80 25 0 0 0 0
80 28.3333 0 0 0 0
80 31.6667 0 0 0 0
80 35 0 0 0 0
80 38.3333 0 0 0 0
80 1.66667 0 0 0 0
80 5 0 0 0 0
80 8.33333 0 0 0 0
80 11.6667 0 0 0 0
80 15 0 0 0 0
80 18.3333 0 0 0 0
80 21.6667 0 0 0 0
80 25 0 0 0 0
80 28.3333 0 0 0 0
80 31.6667 0 0 0 0
80 35 0 0 0 0
80 38.3333 0 0 0 0
80 1.66667 0 0 0 0
80 5 0 0 0 0
80 8.33333 0 0 0 0
80 11.6667 0 0 0 0
80 15 0 0 0 0
80 18.3333 0 0 0 0
80 21.6667 0 0 0 0
80 25 0 0 0 0
80 28.3333 0 0 0 0
80 31.6667 0 0 0 0
80 35 0 0 0 0
80 38.3333 0 0 0 0
80 1.66667 0 0 0 0
80 5 0 0 0 0
80 8.33333 0 0 0 0
80 11.6667 0 0 0 0
80 15 0 0 0 0
80 18.3333 0 0 0 0
80 21.6667 0 0 0 0
80 25 0 0 0 0
80 28.3333 0 0 0 0
80 31.6667 0 0 0 0
80 35 0 0 0 0
80 38.3333 0 0 0 0
80 1.66667 0 0 0 0
80 5 0 0 0 0
80 8.33333 0 0 0 0
80 11.6667 0 0 0 0
80 15 0 0 0 0
80 18.3333 0 0 0 0
80 21.6667 0 0 0 0
80 25 0 0 0 0
80 28.3333 0 0 0 0
80 31.6667 0 0 0 0
80 35 0 0 0 0
80 38.3333 0 0 0 0
80 1.66667 0 0 0 0
80 5 0 0 0 0
80 8.33333 0 0 0 0
80 11.6667 0 0 0 0
80 15 0 0 0 0
80 18.3333 0 0 0 0
80 21.6667 0 0 0 0
80 25 0 0 0 0
80 28.3333 0 0 0 0
80 31.6667 0 0 0 0
80 35 0 0 0 0
80 38.3333 0 0 0 0
80 1.66667 0 0 0 0
80 5 0 0 0 0
80 8.33333 0 0 0 0
80 11.6667 0 0 0 0
80 15 0 0 0 0
80 18.3333 0 0 0 0
80 21.6667 0 0 0 0
80 25 0 0 0 0
80 28.3333 0 0 0 0
80 31.6667 0 0 0 0
80 35 0 0 0 0
80 38.3333 0 0 0 0
</DataArray>
</CellData>
<Points>
<DataArray type="Float32" NumberOfComponents="3" format="ascii">
0 -20 -20
10 -20 -20
20 -20 -20
30 -20 -20
40 -20 -20
50 -20 -20
60 -20 -20
70 -20 -20
80 -20 -20
90 -20 -20
100 -20 -20
110 -20 -20
120 -20 -20
0 -10 -20
10 -10 -20
20 -10 -20
30 -10 -20
40 -10 -20
50 -10 -20
60 -10 -20
70 -10 -20
80 -10 -20
90 -10 -20
100 -10 -20
110 -10 -20
120 -10 -20
0 0 -20
10 0 -20
20 0 -20
30 0 -20
40 0 -20
50 0 -20
60 0 -20
70 0 -20
80 0 -20
90 0 -20
100 0 -20
110 0 -20
120 0 -20
0 10 -20
10 10 -20
20 10 -20
30 10 -20
40 10 -20
50 10 -20
60 10 -20
70 10 -20
80 10 -20
90 10 -20
100 10 -20
110 10 -20
120 10 -20
0 20 -20
10 20 -20
20 20 -20
30 20 -20
40 20 -20
50 20 -20
60 20 -20
70 20 -20
80 20 -20
90 20 -20
100 20 -20
110 20 -20
120 20 -20
0 -20 -10
10 -20 -10
20 -20 -10
30 -20 -10
40 -20 -10
50 -20 -10
60 -20 -10
70 -20 -10
80 -20 -10
90 -20 -10
100 -20 -10
110 -20 -10
120 -20 -10
0 -10 -10
10 -10 -10
20 -10 -10
30 -10 -10
40 -10 -10
50 -10 -10
60 -10 -10
70 -10 -10
80 -10 -10
90 -10 -10
100 -10 -10
110 -10 -10
120 -10 -10
0 0 -10
10 0 -10
20 0 -10
30 0 -10
40 0 -10
50 0 -10
60 0 -10
70 0 -10
80 0 -10
90 0 -10
100 0 -10
110 0 -10
120 0 -10
0 10 -10
10 10 -10
20 10 -10
30 10 -10
40 10 -10
50 10 -10
60 10 -10
70 10 -10
80 10 -10
90 10 -10
100 10 -10
110 10 -10
120 10 -10
0 20 -10
10 20 -10
20 20 -10
30 20 -10
40 20 -10
50 20 -10
60 20 -10
70 20 -10
80 20 -10
90 20 -10
100 20 -10
110 20 -10
120 20 -10
0 -20 0
10 -20 0
20 -20 0
30 -20 0
40 -20 0
50 -20 0
60 -20 0
70 -20 0
80 -20 0
90 -20 0
100 -20 0
110 -20 0
120 -20 0
0 -10 0
10 -10 0
20 -10 0
30 -10 0
40 -10 0
50 -10 0
60 -10 0
70 -10 0
80 -10 0
90 -10 0
100 -10 0
110 -10 0
120 -10 0
0 0 0
10 0 0
20 0 0
30 0 0
40 0 0
50 0 0
60 0 0
70 0 0
80 0 0
90 0 0
100 0 0
110 0 0
120 0 0
0 10 0
10 10 0
20 10 0
30 10 0
40 10 0
50 10 0
60 10 0
70 10 0
80 10 0
90 10 0
100 10 0
110 10 0
120 10 0
0 20 0
10 20 0
20 20 0
30 20 0
40 20 0
50 20 0
60 20 0
70 20 0
80 20 0
90 20 0
100 20 0
110 20 0
120 20 0
0 -20 10
10 -20 10
20 -20 10
30 -20 10
40 -20 10
50 -20 10
60 -20 10
70 -20 10
80 -20 10
90 -20 10
100 -20 10
110 -20 10
120 -20 10
0 -10 10
10 -10 10
20 -10 10
30 -10 10
40 -10 10
50 -10 10
60 -10 10
70 -10 10
80 -10 10
90 -10 10
100 -10 10
110 -10 10
120 -10 10
0 0 10
10 0 10
20 0 10
30 0 10
40 0 10
50 0 10
60 0 10
70 0 10
80 0 10
90 0 10
100 0 10
110 0 10
120 0 10
0 10 10
10 10 10
20 10 10
30 10 10
40 10 10
50 10 10
60 10 10
70 10 10
80 10 10
90 10 10
100 10 10
110 10 10
120 10 10
0 20 10
10 20 10
20 20 10
30 20 10
40 20 10
50 20 10
60 20 10
70 20 10
80 20 10
90 20 10
100 20 10
110 20 10
120 20 10
0 -20 20
10 -20 20
20 -20 20
30 -20 20
40 -20 20
50 -20 20
60 -20 20
70 -20 20
80 -20 20
90 -20 20
100 -20 20
110 -20 20
120 -20 20
0 -10 20
10 -10 20
20 -10 20
30 -10 20
40 -10 20
50 -10 20
60 -10 20
70 -10 20
80 -10 20
90 -10 20
100 -10 20
110 -10 20
120 -10 20
0 0 20
10 0 20
20 0 20
30 0 20
40 0 20
50 0 20
60 0 20
70 0 20
80 0 20
90 0 20
100 0 20
110 0 20
120 0 20
0 10 20
10 10 20
20 10 20
30 10 20
40 10 20
50 10 20
60 10 20
70 10 20
80 10 20
90 10 20
100 10 20
110 10 20
120 10 20
0 20 20
10 20 20
20 20 20
30 20 20
40 20 20
50 20 20
60 20 20
70 20 20
80 20 20
90 20 20
100 20 20
110 20 20
120 20 20
</DataArray>
</Points>
<Cells>
<DataArray type="Int64" Name="connectivity" format="ascii">
0 1 14 13 65 66 79 78
1 2 15 14 66 67 80 79
2 3 16 15 67 68 81 80
3 4 17 16 68 69 82 81
4 5 18 17 69 70 83 82
5 6 19 18 70 71 84 83
6 7 20 19 71 72 85 84
7 8 21 20 72 73 86 85
8 9 22 21 73 74 87 86
9 10 23 22 74 75 88 87
10 11 24 23 75 76 89 88
11 12 25 24 76 77 90 89
13 14 27 26 78 79 92 91
14 15 28 27 79 80 93 92
15 16 29 28 80 81 94 93
16 17 30 29 81 82 95 94
17 18 31 30 82 83 96 95
18 19 32 31 83 84 97 96
19 20 33 32 84 85 98 97
20 21 34 33 85 86 99 98
21 22 35 34 86 87 100 99
22 23 36 35 87 88 101 100
23 24 37 36 88 89 102 101
24 25 38 37 89 90 103 102
26 27 40 39 91 92 105 104
27 28 41 40 92 93 106 105
28 29 42 41 93 94 107 106
29 30 43 42 94 95 108 107
30 31 44 43 95 96 109 108
31 32 45 44 96 97 110 109
32 33 46 45 97 98 111 110
33 34 47 46 98 99 112 111
34 35 48 47 99 100 113 112
35 36 49 48 100 101 114 113
36 37 50 49 101 102 115 114
37 38 51 50 102 103 116 115
39 40 53 52 104 105 118 117
40 41 54 53 105 106 119 118
41 42 55 54 106 107 120 119
42 43 56 55 107 108 121 120
43 44 57 56 108 109 122 121
44 45 58 57 109 110 123 122
45 46 59 58 110 111 124 123
46 47 60 59 111 112 125 124
47 48 61 60 112 113 126 125
48 49 62 61 113 114 127 126
49 50 63 62 114 115 128 127
50 51 64 63 115 116 129 128
65 66 79 78 130 131 144 143
66 67 80 79 131 132 145 144
67 68 81 80 132 133 146 145
68 69 82 81 133 134 147 146
69 70 83 82 134 135 148 147
70 71 84 83 135 136 149 148
71 72 85 84 136 137 150 149
72 73 86 85 137 138 151 150
73 74 87 86 138 139 152 151
74 75 88 87 139 140 153 152
75 76 89 88 140 141 154 153
76 77 90 89 141 142 155 154
78 79 92 91 143 144 157 156
79 80 93 92 144 145 158 157
80 81 94 93 145 146 159 158
81 82 95 94 146 147 160 159
82 83 96 95 147 148 161 160
83 84 97 96 148 149 162 161
84 85 98 97 149 150 163 162
85 86 99 98 150 151 164 163
86 87 100 99 151 152 165 164
87 88 101 100 152 153 166 165
88 89 102 101 153 154 167 166
89 90 103 102 154 155 168 167
91 92 105 104 156 157 170 169
92 93 106 105 157 158 171 170
93 94 107 106 158 159 172 171
94 95 108 107 159 160 173 172
95 96 109 108 160 161 174 173
96 97 110 109 161 162 175 174
97 98 111 110 162 163 176 175
98 99 112 111 163 164 177 176
99 100 113 112 164 165 178 177
100 101 114 113 165 166 179 178
101 102 115 114 166 167 180 179
102 103 116 115 167 168 181 180
104 105 118 117 169 170 183 182
105 106 119 118 170 171 184 183
106 107 120 119 171 172 185 184
107 108 121 120 172 173 186 185
108 109 122 121 173 174 187 186
109 110 123 122 174 175 188 187
110 111 124 123 175 176 189 188
111 112 125 124 176 177 190 189
112 113 126 125 177 178 191 190
113 114 127 126 178 179 192 191
114 115 128 127 179 180 193 192
115 116 129 128 180 181 194 193
130 131 144 143 195 196 209 208
131 132 145 144 196 197 210 209
132 133 146 145 197 198 211 210
133 134 147 146 198 199 212 211
134 135 148 147 199 200 213 212
135 136 149 148 200 201 214 213
136 137 150 149 201 202 215 214
137 138 151 150 202 203 216 215
138 139 152 151 203 204 217 216
139 140 153 152 204 205 218 217
140 141 154 153 205 206 219 218
141 142 155 154 206 207 220 219
143 144 157 156 208 209 222 221
144 145 158 157 209 210 223 222
145 146 159 158 210 211 224 223
146 147 160 159 211 212 225 224
147 148 161 160 212 213 226 225
148 149 162 161 213 214 227 226
149 150 163 162 214 215 228 227
150 151 164 163 215 216 229 228
151 152 165 164 216 217 230 229
152 153 166 165 217 218 231 230
153 154 167 166 218 219 232 231
154 155 168 167 219 220 233 232
156 157 170 169 221 222 235 234
157 158 171 170 222 223 236 235
158 159 172 171 223 224 237 236
159 160 173 172 224 225 238 237
160 161 174 173 225 226 239 238
161 162 175 174 226 227 240 239
162 163 176 175 227 228 241 240
163 164 177 176 228 229 242 241
164 165 178 177 229 230 243 242
165 166 179 178 230 231 244 243
166 167 180 179 231 232 245 244
167 168 181 180 232 233 246 245
169 170 183 182 234 235 248 247
170 171 184 183 235 236 249 248
171 172 185 184 236 237 250 249
172 173 186 185 237 238 251 250
173 174 187 186 238 239 252 251
174 175 188 187 239 240 253 252
175 176 189 188 240 241 254 253
176 177 190 189 241 242 255 254
177 178 191 190 242 243 256 255
178 179 192 191 243 244 257 256
179 180 193 192 244 245 258 257
180 181 194 193 245 246 259 258
195 196 209 208 260 261 274 273
196 197 210 209 261 262 275 274
197 198 211 210 262 263 276 275
198 199 212 211 263 264 277 276
199 200 213 212 264 265 278 277
200 201 214 213 265 266 279 278
201 202 215 214 266 267 280 279
202 203 216 215 267 268 281 280
203 204 217 216 268 269 282 281
204 205 218 217 269 270 283 282
205 206 219 218 270 271 284 283
206 207 220 219 271 272 285 284
208 209 222 221 273 274 287 286
209 210 223 222 274 275 288 287
210 211 224 223 275 276 289 288
211 212 225 224 276 277 290 289
212 213 226 225 277 278 291 290
213 214 227 226 278 279 292 291
214 215 228 227 279 280 293 292
215 216 229 228 280 281 294 293
216 217 230 229 281 282 295 294
217 218 231 230 282 283 296 295
218 219 232 231 283 284 297 296
219 220 233 232 284 285 298 297
221 222 235 234 286 287 300 299
222 223 236 235 287 288 301 300
223 224 237 236 288 289 302 301
224 225 238 237 289 290 303 302
225 226 239 238 290 291 304 303
226 227 240 239 291 292 305 304
227 228 241 240 292 293 306 305
228 229 242 241 293 294 307 306
229 230 243 242 294 295 308 307
230 231 244 243 295 296 309 308
231 232 245 244 296 297 310 309
232 233 246 245 297 298 311 310
234 235 248 247 299 300 313 312
235 236 249 248 300 301 314 313
236 237 250 249 301 302 315 314
237 238 251 250 302 303 316 315
238 239 252 251 303 304 317 316
239 240 253 252 304 305 318 317
240 241 254 253 305 306 319 318
241 242 255 254 306 307 320 319
242 243 256 255 307 308 321 320
243 244 257 256 308 309 322 321
244 245 258 257 309 310 323 322
245 246 259 258 310 311 324 323
</DataArray>
<DataArray type="Int64" Name="offsets" format="ascii">
8 16 24 32 40 48 56 64 72 80 88 96 104 112 120 128 136 144 152 160 168 176 184 192 200 208 216 224 232 240 248 256 264 272 280 288 296 304 312 320 328 336 344 352 360 368 376 384 392 400 408 416 424 432 440 448 456 464 472 480 488 496 504 512 520 528 536 544 552 560 568 576 584 592 600 608 616 624 632 640 648 656 664 672 680 688 696 704 712 720 728 736 744 752 760 768 776 784 792 800 808 816 824 832 840 848 856 864 872 880 888 896 904 912 920 928 936 944 952 960 968 976 984 992 1000 1008 1016 1024 1032 1040 1048 1056 1064 1072 1080 1088 1096 1104 1112 1120 1128 1136 1144 1152 1160 1168 1176 1184 1192 1200 1208 1216 1224 1232 1240 1248 1256 1264 1272 1280 1288 1296 1304 1312 1320 1328 1336 1344 1352 1360 1368 1376 1384 1392 1400 1408 1416 1424 1432 1440 1448 1456 1464 1472 1480 1488 1496 1504 1512 1520 1528 1536
</DataArray>
<DataArray type="UInt8" Name="types" format="ascii">
12 12 12 12 12 12 12 12 12 12 12 12 12 12 12 12 12 12 12 12 12 12 12 12 12 12 12 12 12 12 12 12 12 12 12 12 12 12 12 12 12 12 12 12 12 12 12 12 12 12 12 12 12 12 12 12 12 12 12 12 12 12 12 12 12 12 12 12 12 12 12 12 12 12 12 12 12 12 12 12 12 12 12 12 12 12 12 12 12 12 12 12 12 12 12 12 12 12 12 12 12 12 12 12 12 12 12 12 12 12 12 12 12 12 12 12 12 12 12 12 12 12 12 12 12 12 12 12 12 12 12 12 12 12 12 12 12 12 12 12 12 12 12 12 12 12 12 12 12 12 12 12 12 12 12 12 12 12 12 12 12 12 12 12 12 12 12 12 12 12 12 12 12 12 12 12 12 12 12 12 12 12 12 12 12 12 12 12 12 12 12 12
</DataArray>
</Cells>
</Piece>
</UnstructuredGrid>
</VTKFile>
