# COARSE parametric torus test asset (major radius 30.0, minor radius 10.0)
# 8 major segments x 6 minor segments, axis = Y
# For testing UVGenerator::generateTorus()'s seam-shift clamp-pinch risk at low tessellation
#  Vertices: 48
#     Faces: 96
v 40.000000 0.000000 0.000000
v 35.000000 8.660254 0.000000
v 25.000000 8.660254 0.000000
v 20.000000 0.000000 0.000000
v 25.000000 -8.660254 0.000000
v 35.000000 -8.660254 0.000000
v 28.284271 0.000000 28.284271
v 24.748737 8.660254 24.748737
v 17.677670 8.660254 17.677670
v 14.142136 0.000000 14.142136
v 17.677670 -8.660254 17.677670
v 24.748737 -8.660254 24.748737
v 0.000000 0.000000 40.000000
v 0.000000 8.660254 35.000000
v 0.000000 8.660254 25.000000
v 0.000000 0.000000 20.000000
v 0.000000 -8.660254 25.000000
v 0.000000 -8.660254 35.000000
v -28.284271 0.000000 28.284271
v -24.748737 8.660254 24.748737
v -17.677670 8.660254 17.677670
v -14.142136 0.000000 14.142136
v -17.677670 -8.660254 17.677670
v -24.748737 -8.660254 24.748737
v -40.000000 0.000000 0.000000
v -35.000000 8.660254 0.000000
v -25.000000 8.660254 0.000000
v -20.000000 0.000000 0.000000
v -25.000000 -8.660254 0.000000
v -35.000000 -8.660254 0.000000
v -28.284271 0.000000 -28.284271
v -24.748737 8.660254 -24.748737
v -17.677670 8.660254 -17.677670
v -14.142136 0.000000 -14.142136
v -17.677670 -8.660254 -17.677670
v -24.748737 -8.660254 -24.748737
v -0.000000 0.000000 -40.000000
v -0.000000 8.660254 -35.000000
v -0.000000 8.660254 -25.000000
v -0.000000 0.000000 -20.000000
v -0.000000 -8.660254 -25.000000
v -0.000000 -8.660254 -35.000000
v 28.284271 0.000000 -28.284271
v 24.748737 8.660254 -24.748737
v 17.677670 8.660254 -17.677670
v 14.142136 0.000000 -14.142136
v 17.677670 -8.660254 -17.677670
v 24.748737 -8.660254 -24.748737
g TorusTestCoarse
f 1 7 8
f 1 8 2
f 2 8 9
f 2 9 3
f 3 9 10
f 3 10 4
f 4 10 11
f 4 11 5
f 5 11 12
f 5 12 6
f 6 12 7
f 6 7 1
f 7 13 14
f 7 14 8
f 8 14 15
f 8 15 9
f 9 15 16
f 9 16 10
f 10 16 17
f 10 17 11
f 11 17 18
f 11 18 12
f 12 18 13
f 12 13 7
f 13 19 20
f 13 20 14
f 14 20 21
f 14 21 15
f 15 21 22
f 15 22 16
f 16 22 23
f 16 23 17
f 17 23 24
f 17 24 18
f 18 24 19
f 18 19 13
f 19 25 26
f 19 26 20
f 20 26 27
f 20 27 21
f 21 27 28
f 21 28 22
f 22 28 29
f 22 29 23
f 23 29 30
f 23 30 24
f 24 30 25
f 24 25 19
f 25 31 32
f 25 32 26
f 26 32 33
f 26 33 27
f 27 33 34
f 27 34 28
f 28 34 35
f 28 35 29
f 29 35 36
f 29 36 30
f 30 36 31
f 30 31 25
f 31 37 38
f 31 38 32
f 32 38 39
f 32 39 33
f 33 39 40
f 33 40 34
f 34 40 41
f 34 41 35
f 35 41 42
f 35 42 36
f 36 42 37
f 36 37 31
f 37 43 44
f 37 44 38
f 38 44 45
f 38 45 39
f 39 45 46
f 39 46 40
f 40 46 47
f 40 47 41
f 41 47 48
f 41 48 42
f 42 48 43
f 42 43 37
f 43 1 2
f 43 2 44
f 44 2 3
f 44 3 45
f 45 3 4
f 45 4 46
f 46 4 5
f 46 5 47
f 47 5 6
f 47 6 48
f 48 6 1
f 48 1 43
